<mxfile host="65bd71144e">
    <diagram id="t8QoFsj8MZgXzhcuyan1" name="Page-1">
        <mxGraphModel dx="2588" dy="1494" grid="1" gridSize="10" guides="1" tooltips="1" connect="1" arrows="1" fold="1" page="1" pageScale="1" pageWidth="2339" pageHeight="3300" math="0" shadow="0">
            <root>
                <mxCell id="0"/>
                <mxCell id="1" parent="0"/>
                <mxCell id="mpNhs96wfv5goB9b7S_x-62" value="" style="shape=table;startSize=0;container=1;collapsible=0;childLayout=tableLayout;fontFamily=Alegreya;fontSource=https%3A%2F%2Ffonts.googleapis.com%2Fcss%3Ffamily%3DAlegreya;" parent="1" vertex="1">
                    <mxGeometry x="1120" y="1250" width="360" height="240" as="geometry"/>
                </mxCell>
                <mxCell id="mpNhs96wfv5goB9b7S_x-63" value="" style="shape=tableRow;horizontal=0;startSize=0;swimlaneHead=0;swimlaneBody=0;strokeColor=inherit;top=0;left=0;bottom=0;right=0;collapsible=0;dropTarget=0;fillColor=none;points=[[0,0.5],[1,0.5]];portConstraint=eastwest;fontFamily=Alegreya;fontSource=https%3A%2F%2Ffonts.googleapis.com%2Fcss%3Ffamily%3DAlegreya;" parent="mpNhs96wfv5goB9b7S_x-62" vertex="1">
                    <mxGeometry width="360" height="40" as="geometry"/>
                </mxCell>
                <mxCell id="mpNhs96wfv5goB9b7S_x-64" value="" style="shape=partialRectangle;html=1;whiteSpace=wrap;connectable=0;strokeColor=inherit;overflow=hidden;fillColor=none;top=0;left=0;bottom=0;right=0;pointerEvents=1;fontFamily=Alegreya;fontSource=https%3A%2F%2Ffonts.googleapis.com%2Fcss%3Ffamily%3DAlegreya;" parent="mpNhs96wfv5goB9b7S_x-63" vertex="1">
                    <mxGeometry width="60" height="40" as="geometry">
                        <mxRectangle width="60" height="40" as="alternateBounds"/>
                    </mxGeometry>
                </mxCell>
                <mxCell id="mpNhs96wfv5goB9b7S_x-65" value="A" style="shape=partialRectangle;html=1;whiteSpace=wrap;connectable=0;strokeColor=inherit;overflow=hidden;fillColor=none;top=0;left=0;bottom=0;right=0;pointerEvents=1;fontFamily=Alegreya;fontSource=https%3A%2F%2Ffonts.googleapis.com%2Fcss%3Ffamily%3DAlegreya;" parent="mpNhs96wfv5goB9b7S_x-63" vertex="1">
                    <mxGeometry x="60" width="60" height="40" as="geometry">
                        <mxRectangle width="60" height="40" as="alternateBounds"/>
                    </mxGeometry>
                </mxCell>
                <mxCell id="mpNhs96wfv5goB9b7S_x-66" value="B" style="shape=partialRectangle;html=1;whiteSpace=wrap;connectable=0;strokeColor=inherit;overflow=hidden;fillColor=none;top=0;left=0;bottom=0;right=0;pointerEvents=1;fontFamily=Alegreya;fontSource=https%3A%2F%2Ffonts.googleapis.com%2Fcss%3Ffamily%3DAlegreya;" parent="mpNhs96wfv5goB9b7S_x-63" vertex="1">
                    <mxGeometry x="120" width="60" height="40" as="geometry">
                        <mxRectangle width="60" height="40" as="alternateBounds"/>
                    </mxGeometry>
                </mxCell>
                <mxCell id="mpNhs96wfv5goB9b7S_x-67" value="C" style="shape=partialRectangle;html=1;whiteSpace=wrap;connectable=0;strokeColor=inherit;overflow=hidden;fillColor=none;top=0;left=0;bottom=0;right=0;pointerEvents=1;fontFamily=Alegreya;fontSource=https%3A%2F%2Ffonts.googleapis.com%2Fcss%3Ffamily%3DAlegreya;" parent="mpNhs96wfv5goB9b7S_x-63" vertex="1">
                    <mxGeometry x="180" width="60" height="40" as="geometry">
                        <mxRectangle width="60" height="40" as="alternateBounds"/>
                    </mxGeometry>
                </mxCell>
                <mxCell id="mpNhs96wfv5goB9b7S_x-68" value="D" style="shape=partialRectangle;html=1;whiteSpace=wrap;connectable=0;strokeColor=inherit;overflow=hidden;fillColor=none;top=0;left=0;bottom=0;right=0;pointerEvents=1;fontFamily=Alegreya;fontSource=https%3A%2F%2Ffonts.googleapis.com%2Fcss%3Ffamily%3DAlegreya;" parent="mpNhs96wfv5goB9b7S_x-63" vertex="1">
                    <mxGeometry x="240" width="60" height="40" as="geometry">
                        <mxRectangle width="60" height="40" as="alternateBounds"/>
                    </mxGeometry>
                </mxCell>
                <mxCell id="mpNhs96wfv5goB9b7S_x-69" value="E" style="shape=partialRectangle;html=1;whiteSpace=wrap;connectable=0;strokeColor=inherit;overflow=hidden;fillColor=none;top=0;left=0;bottom=0;right=0;pointerEvents=1;fontFamily=Alegreya;fontSource=https%3A%2F%2Ffonts.googleapis.com%2Fcss%3Ffamily%3DAlegreya;" parent="mpNhs96wfv5goB9b7S_x-63" vertex="1">
                    <mxGeometry x="300" width="60" height="40" as="geometry">
                        <mxRectangle width="60" height="40" as="alternateBounds"/>
                    </mxGeometry>
                </mxCell>
                <mxCell id="mpNhs96wfv5goB9b7S_x-70" value="" style="shape=tableRow;horizontal=0;startSize=0;swimlaneHead=0;swimlaneBody=0;strokeColor=inherit;top=0;left=0;bottom=0;right=0;collapsible=0;dropTarget=0;fillColor=none;points=[[0,0.5],[1,0.5]];portConstraint=eastwest;fontFamily=Alegreya;fontSource=https%3A%2F%2Ffonts.googleapis.com%2Fcss%3Ffamily%3DAlegreya;" parent="mpNhs96wfv5goB9b7S_x-62" vertex="1">
                    <mxGeometry y="40" width="360" height="40" as="geometry"/>
                </mxCell>
                <mxCell id="mpNhs96wfv5goB9b7S_x-71" value="A" style="shape=partialRectangle;html=1;whiteSpace=wrap;connectable=0;strokeColor=inherit;overflow=hidden;fillColor=none;top=0;left=0;bottom=0;right=0;pointerEvents=1;fontFamily=Alegreya;fontSource=https%3A%2F%2Ffonts.googleapis.com%2Fcss%3Ffamily%3DAlegreya;" parent="mpNhs96wfv5goB9b7S_x-70" vertex="1">
                    <mxGeometry width="60" height="40" as="geometry">
                        <mxRectangle width="60" height="40" as="alternateBounds"/>
                    </mxGeometry>
                </mxCell>
                <mxCell id="mpNhs96wfv5goB9b7S_x-72" value="0" style="shape=partialRectangle;html=1;whiteSpace=wrap;connectable=0;strokeColor=inherit;overflow=hidden;fillColor=none;top=0;left=0;bottom=0;right=0;pointerEvents=1;fontFamily=Alegreya;fontSource=https%3A%2F%2Ffonts.googleapis.com%2Fcss%3Ffamily%3DAlegreya;" parent="mpNhs96wfv5goB9b7S_x-70" vertex="1">
                    <mxGeometry x="60" width="60" height="40" as="geometry">
                        <mxRectangle width="60" height="40" as="alternateBounds"/>
                    </mxGeometry>
                </mxCell>
                <mxCell id="mpNhs96wfv5goB9b7S_x-73" value="1" style="shape=partialRectangle;html=1;whiteSpace=wrap;connectable=0;strokeColor=inherit;overflow=hidden;fillColor=none;top=0;left=0;bottom=0;right=0;pointerEvents=1;fontFamily=Alegreya;fontSource=https%3A%2F%2Ffonts.googleapis.com%2Fcss%3Ffamily%3DAlegreya;" parent="mpNhs96wfv5goB9b7S_x-70" vertex="1">
                    <mxGeometry x="120" width="60" height="40" as="geometry">
                        <mxRectangle width="60" height="40" as="alternateBounds"/>
                    </mxGeometry>
                </mxCell>
                <mxCell id="mpNhs96wfv5goB9b7S_x-74" value="" style="shape=partialRectangle;html=1;whiteSpace=wrap;connectable=0;strokeColor=inherit;overflow=hidden;fillColor=none;top=0;left=0;bottom=0;right=0;pointerEvents=1;fontFamily=Alegreya;fontSource=https%3A%2F%2Ffonts.googleapis.com%2Fcss%3Ffamily%3DAlegreya;" parent="mpNhs96wfv5goB9b7S_x-70" vertex="1">
                    <mxGeometry x="180" width="60" height="40" as="geometry">
                        <mxRectangle width="60" height="40" as="alternateBounds"/>
                    </mxGeometry>
                </mxCell>
                <mxCell id="mpNhs96wfv5goB9b7S_x-75" value="1" style="shape=partialRectangle;html=1;whiteSpace=wrap;connectable=0;strokeColor=inherit;overflow=hidden;fillColor=none;top=0;left=0;bottom=0;right=0;pointerEvents=1;fontFamily=Alegreya;fontSource=https%3A%2F%2Ffonts.googleapis.com%2Fcss%3Ffamily%3DAlegreya;" parent="mpNhs96wfv5goB9b7S_x-70" vertex="1">
                    <mxGeometry x="240" width="60" height="40" as="geometry">
                        <mxRectangle width="60" height="40" as="alternateBounds"/>
                    </mxGeometry>
                </mxCell>
                <mxCell id="mpNhs96wfv5goB9b7S_x-76" value="1" style="shape=partialRectangle;html=1;whiteSpace=wrap;connectable=0;strokeColor=inherit;overflow=hidden;fillColor=none;top=0;left=0;bottom=0;right=0;pointerEvents=1;fontFamily=Alegreya;fontSource=https%3A%2F%2Ffonts.googleapis.com%2Fcss%3Ffamily%3DAlegreya;" parent="mpNhs96wfv5goB9b7S_x-70" vertex="1">
                    <mxGeometry x="300" width="60" height="40" as="geometry">
                        <mxRectangle width="60" height="40" as="alternateBounds"/>
                    </mxGeometry>
                </mxCell>
                <mxCell id="mpNhs96wfv5goB9b7S_x-77" value="" style="shape=tableRow;horizontal=0;startSize=0;swimlaneHead=0;swimlaneBody=0;strokeColor=inherit;top=0;left=0;bottom=0;right=0;collapsible=0;dropTarget=0;fillColor=none;points=[[0,0.5],[1,0.5]];portConstraint=eastwest;fontFamily=Alegreya;fontSource=https%3A%2F%2Ffonts.googleapis.com%2Fcss%3Ffamily%3DAlegreya;" parent="mpNhs96wfv5goB9b7S_x-62" vertex="1">
                    <mxGeometry y="80" width="360" height="40" as="geometry"/>
                </mxCell>
                <mxCell id="mpNhs96wfv5goB9b7S_x-78" value="B" style="shape=partialRectangle;html=1;whiteSpace=wrap;connectable=0;strokeColor=inherit;overflow=hidden;fillColor=none;top=0;left=0;bottom=0;right=0;pointerEvents=1;fontFamily=Alegreya;fontSource=https%3A%2F%2Ffonts.googleapis.com%2Fcss%3Ffamily%3DAlegreya;" parent="mpNhs96wfv5goB9b7S_x-77" vertex="1">
                    <mxGeometry width="60" height="40" as="geometry">
                        <mxRectangle width="60" height="40" as="alternateBounds"/>
                    </mxGeometry>
                </mxCell>
                <mxCell id="mpNhs96wfv5goB9b7S_x-79" value="1" style="shape=partialRectangle;html=1;whiteSpace=wrap;connectable=0;strokeColor=inherit;overflow=hidden;fillColor=none;top=0;left=0;bottom=0;right=0;pointerEvents=1;fontFamily=Alegreya;fontSource=https%3A%2F%2Ffonts.googleapis.com%2Fcss%3Ffamily%3DAlegreya;" parent="mpNhs96wfv5goB9b7S_x-77" vertex="1">
                    <mxGeometry x="60" width="60" height="40" as="geometry">
                        <mxRectangle width="60" height="40" as="alternateBounds"/>
                    </mxGeometry>
                </mxCell>
                <mxCell id="mpNhs96wfv5goB9b7S_x-80" value="0" style="shape=partialRectangle;html=1;whiteSpace=wrap;connectable=0;strokeColor=inherit;overflow=hidden;fillColor=none;top=0;left=0;bottom=0;right=0;pointerEvents=1;fontFamily=Alegreya;fontSource=https%3A%2F%2Ffonts.googleapis.com%2Fcss%3Ffamily%3DAlegreya;" parent="mpNhs96wfv5goB9b7S_x-77" vertex="1">
                    <mxGeometry x="120" width="60" height="40" as="geometry">
                        <mxRectangle width="60" height="40" as="alternateBounds"/>
                    </mxGeometry>
                </mxCell>
                <mxCell id="mpNhs96wfv5goB9b7S_x-81" value="1" style="shape=partialRectangle;html=1;whiteSpace=wrap;connectable=0;strokeColor=inherit;overflow=hidden;fillColor=none;top=0;left=0;bottom=0;right=0;pointerEvents=1;fontFamily=Alegreya;fontSource=https%3A%2F%2Ffonts.googleapis.com%2Fcss%3Ffamily%3DAlegreya;" parent="mpNhs96wfv5goB9b7S_x-77" vertex="1">
                    <mxGeometry x="180" width="60" height="40" as="geometry">
                        <mxRectangle width="60" height="40" as="alternateBounds"/>
                    </mxGeometry>
                </mxCell>
                <mxCell id="mpNhs96wfv5goB9b7S_x-82" value="1" style="shape=partialRectangle;html=1;whiteSpace=wrap;connectable=0;strokeColor=inherit;overflow=hidden;fillColor=none;top=0;left=0;bottom=0;right=0;pointerEvents=1;fontFamily=Alegreya;fontSource=https%3A%2F%2Ffonts.googleapis.com%2Fcss%3Ffamily%3DAlegreya;" parent="mpNhs96wfv5goB9b7S_x-77" vertex="1">
                    <mxGeometry x="240" width="60" height="40" as="geometry">
                        <mxRectangle width="60" height="40" as="alternateBounds"/>
                    </mxGeometry>
                </mxCell>
                <mxCell id="mpNhs96wfv5goB9b7S_x-83" value="1" style="shape=partialRectangle;html=1;whiteSpace=wrap;connectable=0;strokeColor=inherit;overflow=hidden;fillColor=none;top=0;left=0;bottom=0;right=0;pointerEvents=1;fontFamily=Alegreya;fontSource=https%3A%2F%2Ffonts.googleapis.com%2Fcss%3Ffamily%3DAlegreya;" parent="mpNhs96wfv5goB9b7S_x-77" vertex="1">
                    <mxGeometry x="300" width="60" height="40" as="geometry">
                        <mxRectangle width="60" height="40" as="alternateBounds"/>
                    </mxGeometry>
                </mxCell>
                <mxCell id="mpNhs96wfv5goB9b7S_x-84" value="" style="shape=tableRow;horizontal=0;startSize=0;swimlaneHead=0;swimlaneBody=0;strokeColor=inherit;top=0;left=0;bottom=0;right=0;collapsible=0;dropTarget=0;fillColor=none;points=[[0,0.5],[1,0.5]];portConstraint=eastwest;fontFamily=Alegreya;fontSource=https%3A%2F%2Ffonts.googleapis.com%2Fcss%3Ffamily%3DAlegreya;" parent="mpNhs96wfv5goB9b7S_x-62" vertex="1">
                    <mxGeometry y="120" width="360" height="40" as="geometry"/>
                </mxCell>
                <mxCell id="mpNhs96wfv5goB9b7S_x-85" value="C" style="shape=partialRectangle;html=1;whiteSpace=wrap;connectable=0;strokeColor=inherit;overflow=hidden;fillColor=none;top=0;left=0;bottom=0;right=0;pointerEvents=1;fontFamily=Alegreya;fontSource=https%3A%2F%2Ffonts.googleapis.com%2Fcss%3Ffamily%3DAlegreya;" parent="mpNhs96wfv5goB9b7S_x-84" vertex="1">
                    <mxGeometry width="60" height="40" as="geometry">
                        <mxRectangle width="60" height="40" as="alternateBounds"/>
                    </mxGeometry>
                </mxCell>
                <mxCell id="mpNhs96wfv5goB9b7S_x-86" value="" style="shape=partialRectangle;html=1;whiteSpace=wrap;connectable=0;strokeColor=inherit;overflow=hidden;fillColor=none;top=0;left=0;bottom=0;right=0;pointerEvents=1;fontFamily=Alegreya;fontSource=https%3A%2F%2Ffonts.googleapis.com%2Fcss%3Ffamily%3DAlegreya;" parent="mpNhs96wfv5goB9b7S_x-84" vertex="1">
                    <mxGeometry x="60" width="60" height="40" as="geometry">
                        <mxRectangle width="60" height="40" as="alternateBounds"/>
                    </mxGeometry>
                </mxCell>
                <mxCell id="mpNhs96wfv5goB9b7S_x-87" value="1" style="shape=partialRectangle;html=1;whiteSpace=wrap;connectable=0;strokeColor=inherit;overflow=hidden;fillColor=none;top=0;left=0;bottom=0;right=0;pointerEvents=1;fontFamily=Alegreya;fontSource=https%3A%2F%2Ffonts.googleapis.com%2Fcss%3Ffamily%3DAlegreya;" parent="mpNhs96wfv5goB9b7S_x-84" vertex="1">
                    <mxGeometry x="120" width="60" height="40" as="geometry">
                        <mxRectangle width="60" height="40" as="alternateBounds"/>
                    </mxGeometry>
                </mxCell>
                <mxCell id="mpNhs96wfv5goB9b7S_x-88" value="0" style="shape=partialRectangle;html=1;whiteSpace=wrap;connectable=0;strokeColor=inherit;overflow=hidden;fillColor=none;top=0;left=0;bottom=0;right=0;pointerEvents=1;fontFamily=Alegreya;fontSource=https%3A%2F%2Ffonts.googleapis.com%2Fcss%3Ffamily%3DAlegreya;" parent="mpNhs96wfv5goB9b7S_x-84" vertex="1">
                    <mxGeometry x="180" width="60" height="40" as="geometry">
                        <mxRectangle width="60" height="40" as="alternateBounds"/>
                    </mxGeometry>
                </mxCell>
                <mxCell id="mpNhs96wfv5goB9b7S_x-89" value="1" style="shape=partialRectangle;html=1;whiteSpace=wrap;connectable=0;strokeColor=inherit;overflow=hidden;fillColor=none;top=0;left=0;bottom=0;right=0;pointerEvents=1;fontFamily=Alegreya;fontSource=https%3A%2F%2Ffonts.googleapis.com%2Fcss%3Ffamily%3DAlegreya;" parent="mpNhs96wfv5goB9b7S_x-84" vertex="1">
                    <mxGeometry x="240" width="60" height="40" as="geometry">
                        <mxRectangle width="60" height="40" as="alternateBounds"/>
                    </mxGeometry>
                </mxCell>
                <mxCell id="mpNhs96wfv5goB9b7S_x-90" value="" style="shape=partialRectangle;html=1;whiteSpace=wrap;connectable=0;strokeColor=inherit;overflow=hidden;fillColor=none;top=0;left=0;bottom=0;right=0;pointerEvents=1;fontFamily=Alegreya;fontSource=https%3A%2F%2Ffonts.googleapis.com%2Fcss%3Ffamily%3DAlegreya;" parent="mpNhs96wfv5goB9b7S_x-84" vertex="1">
                    <mxGeometry x="300" width="60" height="40" as="geometry">
                        <mxRectangle width="60" height="40" as="alternateBounds"/>
                    </mxGeometry>
                </mxCell>
                <mxCell id="mpNhs96wfv5goB9b7S_x-91" value="" style="shape=tableRow;horizontal=0;startSize=0;swimlaneHead=0;swimlaneBody=0;strokeColor=inherit;top=0;left=0;bottom=0;right=0;collapsible=0;dropTarget=0;fillColor=none;points=[[0,0.5],[1,0.5]];portConstraint=eastwest;fontFamily=Alegreya;fontSource=https%3A%2F%2Ffonts.googleapis.com%2Fcss%3Ffamily%3DAlegreya;" parent="mpNhs96wfv5goB9b7S_x-62" vertex="1">
                    <mxGeometry y="160" width="360" height="40" as="geometry"/>
                </mxCell>
                <mxCell id="mpNhs96wfv5goB9b7S_x-92" value="D" style="shape=partialRectangle;html=1;whiteSpace=wrap;connectable=0;strokeColor=inherit;overflow=hidden;fillColor=none;top=0;left=0;bottom=0;right=0;pointerEvents=1;fontFamily=Alegreya;fontSource=https%3A%2F%2Ffonts.googleapis.com%2Fcss%3Ffamily%3DAlegreya;" parent="mpNhs96wfv5goB9b7S_x-91" vertex="1">
                    <mxGeometry width="60" height="40" as="geometry">
                        <mxRectangle width="60" height="40" as="alternateBounds"/>
                    </mxGeometry>
                </mxCell>
                <mxCell id="mpNhs96wfv5goB9b7S_x-93" value="1" style="shape=partialRectangle;html=1;whiteSpace=wrap;connectable=0;strokeColor=inherit;overflow=hidden;fillColor=none;top=0;left=0;bottom=0;right=0;pointerEvents=1;fontFamily=Alegreya;fontSource=https%3A%2F%2Ffonts.googleapis.com%2Fcss%3Ffamily%3DAlegreya;" parent="mpNhs96wfv5goB9b7S_x-91" vertex="1">
                    <mxGeometry x="60" width="60" height="40" as="geometry">
                        <mxRectangle width="60" height="40" as="alternateBounds"/>
                    </mxGeometry>
                </mxCell>
                <mxCell id="mpNhs96wfv5goB9b7S_x-94" value="1" style="shape=partialRectangle;html=1;whiteSpace=wrap;connectable=0;strokeColor=inherit;overflow=hidden;fillColor=none;top=0;left=0;bottom=0;right=0;pointerEvents=1;fontFamily=Alegreya;fontSource=https%3A%2F%2Ffonts.googleapis.com%2Fcss%3Ffamily%3DAlegreya;" parent="mpNhs96wfv5goB9b7S_x-91" vertex="1">
                    <mxGeometry x="120" width="60" height="40" as="geometry">
                        <mxRectangle width="60" height="40" as="alternateBounds"/>
                    </mxGeometry>
                </mxCell>
                <mxCell id="mpNhs96wfv5goB9b7S_x-95" value="1" style="shape=partialRectangle;html=1;whiteSpace=wrap;connectable=0;strokeColor=inherit;overflow=hidden;fillColor=none;top=0;left=0;bottom=0;right=0;pointerEvents=1;fontFamily=Alegreya;fontSource=https%3A%2F%2Ffonts.googleapis.com%2Fcss%3Ffamily%3DAlegreya;" parent="mpNhs96wfv5goB9b7S_x-91" vertex="1">
                    <mxGeometry x="180" width="60" height="40" as="geometry">
                        <mxRectangle width="60" height="40" as="alternateBounds"/>
                    </mxGeometry>
                </mxCell>
                <mxCell id="mpNhs96wfv5goB9b7S_x-96" value="0" style="shape=partialRectangle;html=1;whiteSpace=wrap;connectable=0;strokeColor=inherit;overflow=hidden;fillColor=none;top=0;left=0;bottom=0;right=0;pointerEvents=1;fontFamily=Alegreya;fontSource=https%3A%2F%2Ffonts.googleapis.com%2Fcss%3Ffamily%3DAlegreya;" parent="mpNhs96wfv5goB9b7S_x-91" vertex="1">
                    <mxGeometry x="240" width="60" height="40" as="geometry">
                        <mxRectangle width="60" height="40" as="alternateBounds"/>
                    </mxGeometry>
                </mxCell>
                <mxCell id="mpNhs96wfv5goB9b7S_x-97" value="1" style="shape=partialRectangle;html=1;whiteSpace=wrap;connectable=0;strokeColor=inherit;overflow=hidden;fillColor=none;top=0;left=0;bottom=0;right=0;pointerEvents=1;fontFamily=Alegreya;fontSource=https%3A%2F%2Ffonts.googleapis.com%2Fcss%3Ffamily%3DAlegreya;" parent="mpNhs96wfv5goB9b7S_x-91" vertex="1">
                    <mxGeometry x="300" width="60" height="40" as="geometry">
                        <mxRectangle width="60" height="40" as="alternateBounds"/>
                    </mxGeometry>
                </mxCell>
                <mxCell id="mpNhs96wfv5goB9b7S_x-98" value="" style="shape=tableRow;horizontal=0;startSize=0;swimlaneHead=0;swimlaneBody=0;strokeColor=inherit;top=0;left=0;bottom=0;right=0;collapsible=0;dropTarget=0;fillColor=none;points=[[0,0.5],[1,0.5]];portConstraint=eastwest;fontFamily=Alegreya;fontSource=https%3A%2F%2Ffonts.googleapis.com%2Fcss%3Ffamily%3DAlegreya;" parent="mpNhs96wfv5goB9b7S_x-62" vertex="1">
                    <mxGeometry y="200" width="360" height="40" as="geometry"/>
                </mxCell>
                <mxCell id="mpNhs96wfv5goB9b7S_x-99" value="E" style="shape=partialRectangle;html=1;whiteSpace=wrap;connectable=0;strokeColor=inherit;overflow=hidden;fillColor=none;top=0;left=0;bottom=0;right=0;pointerEvents=1;fontFamily=Alegreya;fontSource=https%3A%2F%2Ffonts.googleapis.com%2Fcss%3Ffamily%3DAlegreya;" parent="mpNhs96wfv5goB9b7S_x-98" vertex="1">
                    <mxGeometry width="60" height="40" as="geometry">
                        <mxRectangle width="60" height="40" as="alternateBounds"/>
                    </mxGeometry>
                </mxCell>
                <mxCell id="mpNhs96wfv5goB9b7S_x-100" value="1" style="shape=partialRectangle;html=1;whiteSpace=wrap;connectable=0;strokeColor=inherit;overflow=hidden;fillColor=none;top=0;left=0;bottom=0;right=0;pointerEvents=1;fontFamily=Alegreya;fontSource=https%3A%2F%2Ffonts.googleapis.com%2Fcss%3Ffamily%3DAlegreya;" parent="mpNhs96wfv5goB9b7S_x-98" vertex="1">
                    <mxGeometry x="60" width="60" height="40" as="geometry">
                        <mxRectangle width="60" height="40" as="alternateBounds"/>
                    </mxGeometry>
                </mxCell>
                <mxCell id="mpNhs96wfv5goB9b7S_x-101" value="1" style="shape=partialRectangle;html=1;whiteSpace=wrap;connectable=0;strokeColor=inherit;overflow=hidden;fillColor=none;top=0;left=0;bottom=0;right=0;pointerEvents=1;fontFamily=Alegreya;fontSource=https%3A%2F%2Ffonts.googleapis.com%2Fcss%3Ffamily%3DAlegreya;" parent="mpNhs96wfv5goB9b7S_x-98" vertex="1">
                    <mxGeometry x="120" width="60" height="40" as="geometry">
                        <mxRectangle width="60" height="40" as="alternateBounds"/>
                    </mxGeometry>
                </mxCell>
                <mxCell id="mpNhs96wfv5goB9b7S_x-102" value="" style="shape=partialRectangle;html=1;whiteSpace=wrap;connectable=0;strokeColor=inherit;overflow=hidden;fillColor=none;top=0;left=0;bottom=0;right=0;pointerEvents=1;fontFamily=Alegreya;fontSource=https%3A%2F%2Ffonts.googleapis.com%2Fcss%3Ffamily%3DAlegreya;" parent="mpNhs96wfv5goB9b7S_x-98" vertex="1">
                    <mxGeometry x="180" width="60" height="40" as="geometry">
                        <mxRectangle width="60" height="40" as="alternateBounds"/>
                    </mxGeometry>
                </mxCell>
                <mxCell id="mpNhs96wfv5goB9b7S_x-103" value="1" style="shape=partialRectangle;html=1;whiteSpace=wrap;connectable=0;strokeColor=inherit;overflow=hidden;fillColor=none;top=0;left=0;bottom=0;right=0;pointerEvents=1;fontFamily=Alegreya;fontSource=https%3A%2F%2Ffonts.googleapis.com%2Fcss%3Ffamily%3DAlegreya;" parent="mpNhs96wfv5goB9b7S_x-98" vertex="1">
                    <mxGeometry x="240" width="60" height="40" as="geometry">
                        <mxRectangle width="60" height="40" as="alternateBounds"/>
                    </mxGeometry>
                </mxCell>
                <mxCell id="mpNhs96wfv5goB9b7S_x-104" value="0" style="shape=partialRectangle;html=1;whiteSpace=wrap;connectable=0;strokeColor=inherit;overflow=hidden;fillColor=none;top=0;left=0;bottom=0;right=0;pointerEvents=1;fontFamily=Alegreya;fontSource=https%3A%2F%2Ffonts.googleapis.com%2Fcss%3Ffamily%3DAlegreya;" parent="mpNhs96wfv5goB9b7S_x-98" vertex="1">
                    <mxGeometry x="300" width="60" height="40" as="geometry">
                        <mxRectangle width="60" height="40" as="alternateBounds"/>
                    </mxGeometry>
                </mxCell>
                <mxCell id="mpNhs96wfv5goB9b7S_x-105" value="D" style="rounded=1;html=1;fontFamily=Alegreya;fontSource=https%3A%2F%2Ffonts.googleapis.com%2Fcss%3Ffamily%3DAlegreya;whiteSpace=wrap;" parent="1" vertex="1">
                    <mxGeometry x="970" y="1360" width="40" height="30" as="geometry"/>
                </mxCell>
                <mxCell id="mpNhs96wfv5goB9b7S_x-106" value="A" style="rounded=1;html=1;fontFamily=Alegreya;fontSource=https%3A%2F%2Ffonts.googleapis.com%2Fcss%3Ffamily%3DAlegreya;whiteSpace=wrap;" parent="1" vertex="1">
                    <mxGeometry x="780" y="1460" width="40" height="30" as="geometry"/>
                </mxCell>
                <mxCell id="mpNhs96wfv5goB9b7S_x-107" value="E" style="rounded=1;html=1;fontFamily=Alegreya;fontSource=https%3A%2F%2Ffonts.googleapis.com%2Fcss%3Ffamily%3DAlegreya;whiteSpace=wrap;" parent="1" vertex="1">
                    <mxGeometry x="970" y="1460" width="40" height="30" as="geometry"/>
                </mxCell>
                <mxCell id="mpNhs96wfv5goB9b7S_x-108" value="B" style="rounded=1;html=1;fontFamily=Alegreya;fontSource=https%3A%2F%2Ffonts.googleapis.com%2Fcss%3Ffamily%3DAlegreya;whiteSpace=wrap;" parent="1" vertex="1">
                    <mxGeometry x="780" y="1360" width="40" height="30" as="geometry"/>
                </mxCell>
                <mxCell id="mpNhs96wfv5goB9b7S_x-109" value="C" style="rounded=1;html=1;fontFamily=Alegreya;fontSource=https%3A%2F%2Ffonts.googleapis.com%2Fcss%3Ffamily%3DAlegreya;whiteSpace=wrap;" parent="1" vertex="1">
                    <mxGeometry x="880" y="1260" width="40" height="30" as="geometry"/>
                </mxCell>
                <mxCell id="mpNhs96wfv5goB9b7S_x-111" value="" style="endArrow=none;html=1;rounded=0;fontFamily=Alegreya;fontSize=12;fontColor=default;fontSource=https%3A%2F%2Ffonts.googleapis.com%2Fcss%3Ffamily%3DAlegreya;" parent="1" source="mpNhs96wfv5goB9b7S_x-108" target="mpNhs96wfv5goB9b7S_x-109" edge="1">
                    <mxGeometry width="50" height="50" relative="1" as="geometry">
                        <mxPoint x="880" y="1400" as="sourcePoint"/>
                        <mxPoint x="930" y="1350" as="targetPoint"/>
                    </mxGeometry>
                </mxCell>
                <mxCell id="mpNhs96wfv5goB9b7S_x-112" value="" style="endArrow=none;html=1;rounded=0;fontFamily=Alegreya;fontSize=12;fontColor=default;fontSource=https%3A%2F%2Ffonts.googleapis.com%2Fcss%3Ffamily%3DAlegreya;" parent="1" target="mpNhs96wfv5goB9b7S_x-105" edge="1" source="mpNhs96wfv5goB9b7S_x-109">
                    <mxGeometry width="50" height="50" relative="1" as="geometry">
                        <mxPoint x="900" y="1320" as="sourcePoint"/>
                        <mxPoint x="880" y="1370" as="targetPoint"/>
                    </mxGeometry>
                </mxCell>
                <mxCell id="mpNhs96wfv5goB9b7S_x-113" value="" style="endArrow=none;html=1;rounded=0;fontFamily=Alegreya;fontSize=12;fontColor=default;fontSource=https%3A%2F%2Ffonts.googleapis.com%2Fcss%3Ffamily%3DAlegreya;" parent="1" source="mpNhs96wfv5goB9b7S_x-106" target="mpNhs96wfv5goB9b7S_x-108" edge="1">
                    <mxGeometry width="50" height="50" relative="1" as="geometry">
                        <mxPoint x="810" y="1430" as="sourcePoint"/>
                        <mxPoint x="860" y="1380" as="targetPoint"/>
                    </mxGeometry>
                </mxCell>
                <mxCell id="mpNhs96wfv5goB9b7S_x-114" value="" style="endArrow=none;html=1;rounded=0;fontFamily=Alegreya;fontSize=12;fontColor=default;fontSource=https%3A%2F%2Ffonts.googleapis.com%2Fcss%3Ffamily%3DAlegreya;" parent="1" source="mpNhs96wfv5goB9b7S_x-106" target="mpNhs96wfv5goB9b7S_x-107" edge="1">
                    <mxGeometry width="50" height="50" relative="1" as="geometry">
                        <mxPoint x="870" y="1470" as="sourcePoint"/>
                        <mxPoint x="920" y="1420" as="targetPoint"/>
                    </mxGeometry>
                </mxCell>
                <mxCell id="mpNhs96wfv5goB9b7S_x-115" value="" style="endArrow=none;html=1;rounded=0;fontFamily=Alegreya;fontSize=12;fontColor=default;fontSource=https%3A%2F%2Ffonts.googleapis.com%2Fcss%3Ffamily%3DAlegreya;" parent="1" source="mpNhs96wfv5goB9b7S_x-107" target="mpNhs96wfv5goB9b7S_x-105" edge="1">
                    <mxGeometry width="50" height="50" relative="1" as="geometry">
                        <mxPoint x="960" y="1410" as="sourcePoint"/>
                        <mxPoint x="1010" y="1360" as="targetPoint"/>
                    </mxGeometry>
                </mxCell>
                <mxCell id="mpNhs96wfv5goB9b7S_x-116" value="" style="endArrow=none;html=1;rounded=0;fontFamily=Alegreya;fontSize=12;fontColor=default;fontSource=https%3A%2F%2Ffonts.googleapis.com%2Fcss%3Ffamily%3DAlegreya;" parent="1" source="mpNhs96wfv5goB9b7S_x-108" target="mpNhs96wfv5goB9b7S_x-105" edge="1">
                    <mxGeometry width="50" height="50" relative="1" as="geometry">
                        <mxPoint x="870" y="1390" as="sourcePoint"/>
                        <mxPoint x="920" y="1340" as="targetPoint"/>
                    </mxGeometry>
                </mxCell>
                <mxCell id="mpNhs96wfv5goB9b7S_x-117" value="" style="endArrow=none;html=1;rounded=0;fontFamily=Alegreya;fontSize=12;fontColor=default;fontSource=https%3A%2F%2Ffonts.googleapis.com%2Fcss%3Ffamily%3DAlegreya;" parent="1" source="mpNhs96wfv5goB9b7S_x-108" target="mpNhs96wfv5goB9b7S_x-107" edge="1">
                    <mxGeometry width="50" height="50" relative="1" as="geometry">
                        <mxPoint x="840" y="1420" as="sourcePoint"/>
                        <mxPoint x="890" y="1370" as="targetPoint"/>
                    </mxGeometry>
                </mxCell>
                <mxCell id="mpNhs96wfv5goB9b7S_x-118" value="" style="endArrow=none;html=1;rounded=0;fontFamily=Alegreya;fontSize=12;fontColor=default;fontSource=https%3A%2F%2Ffonts.googleapis.com%2Fcss%3Ffamily%3DAlegreya;" parent="1" source="mpNhs96wfv5goB9b7S_x-106" target="mpNhs96wfv5goB9b7S_x-105" edge="1">
                    <mxGeometry width="50" height="50" relative="1" as="geometry">
                        <mxPoint x="850" y="1450" as="sourcePoint"/>
                        <mxPoint x="900" y="1400" as="targetPoint"/>
                    </mxGeometry>
                </mxCell>
            </root>
        </mxGraphModel>
    </diagram>
</mxfile>
